- 
http://www.Speed.Cd 
       
http://www.Speed.Cd       the fast  and The Hottest Private Tracker on the net

(((--Registration will be open on june every weekend--)))

Please Seed back to make the speed Faster!!!

------------------nfo--------------------------
-[img]http://img829.imageshack.us/img829/7848/68620.jpg[/img]


[color=blue][size=5][b]Winnie.The.Pooh.2011.R4.DVDRip.XVID.AC3-5.1.HQ.Hive-CM8[/b][/size][/color]


[b]Thx Hive


CM8 Doing It Right The First Time :D


Sources:
Video: Spanish R4 DVD-R
Audio: Nedivx


Encode:
Spanish DVD had very good quality. Synced the Nedivx audio to the DVD, cleaned the
Spanish 5.1 track of voice and Spanish songs and entered the English audio back into
the Spanish track - got very nice. Also did full English subs with timing of Spanish subs.
Enjoy!


Video: 720x400 @bitrate 2200 2pass
Audio: English AC3 5.1 @384
Sample: yes included
Subs: yes english in srt /subs[/b]


[url]http://www.imdb.com/title/tt1449283/[/url]


General
Complete name                    : Winnie.The.Pooh.2011.R4.DVDRip.XVID.AC3-5.1.HQ.Hive-CM8.avi
Format                           : AVI
Format/Info                      : Audio Video Interleave
File size                        : 1.15 GiB
Duration                         : 1h 3mn
Overall bit rate                 : 2 613 Kbps
Writing application              : Nandub v1.0rc2
Writing library                  : Nandub build 1853/release

Video
ID                               : 0
Format                           : MPEG-4 Visual
Format profile                   : Advanced Simple@L5
Format settings, BVOP            : 2
Format settings, QPel            : Yes
Format settings, GMC             : No warppoints
Format settings, Matrix          : Default (H.263)
Muxing mode                      : Packed bitstream
Codec ID                         : XVID
Codec ID/Hint                    : XviD
Duration                         : 1h 3mn
Bit rate                         : 2 219 Kbps
Width                            : 720 pixels
Height                           : 400 pixels
Display aspect ratio             : 16:9
Frame rate                       : 23.976 fps
Color space                      : YUV
Chroma subsampling               : 4:2:0
Bit depth                        : 8 bits
Scan type                        : Progressive
Compression mode                 : Lossy
Bits/(Pixel*Frame)               : 0.321
Stream size                      : 1 001 MiB (85%)
Writing library                  : XviD 1.2.1 (UTC 2008-12-04)

Audio
ID                               : 1
Format                           : AC-3
Format/Info                      : Audio Coding 3
Mode extension                   : CM (complete main)
Codec ID                         : 2000
Duration                         : 1h 3mn
Bit rate mode                    : Constant
Bit rate                         : 384 Kbps
Channel(s)                       : 6 channels
Channel positions                : Front: L C R, Side: L R, LFE
Sampling rate                    : 48.0 KHz
Bit depth                        : 16 bits
Compression mode                 : Lossy
Stream size                      : 173 MiB (15%)
Alignment                        : Split accross interleaves
Interleave, duration             : 42 ms (1.00 video frame)
Interleave, preload duration     : 500 ms

Plot:
During an ordinary day in Hundred Acre Wood, Winnie the Pooh sets out to find some honey.
Misinterpreting a note from Christopher Robin, Pooh convinces Tigger, Rabbit, Piglet, Owl,
Kanga, Roo, and Eeyore that their young friend has been captured by a creature named
"Backson" and they set out to save him.


Cast:
John Cleese      ...    Narrator (voice)
Jim Cummings     ...    Winnie the Pooh / Tigger (voice)
Bud Luckey       ...    Eeyore (voice)
Craig Ferguson   ...    Owl (voice)
Jack Boulter     ...    Christopher Robin (voice)
Travis Oates     ...    Piglet (voice)


[img]http://img713.imageshack.us/img713/977/wiwi.png[/img]
[img]http://img804.imageshack.us/img804/8677/15353347.png[/img]
[img]http://img832.imageshack.us/img832/5346/wiwiwi.png[/img]
[img]http://img546.imageshack.us/img546/5301/wiwwiiwi.png[/img]
[img]http://img13.imageshack.us/img13/1772/wiwwiwiiwi.png[/img]
[img]http://img687.imageshack.us/img687/7992/wiwwiwiwiiwi.png[/img]
[img]http://img832.imageshack.us/img832/7084/wiwwiwiwiwwiiiwi.png[/img]
[img]http://img35.imageshack.us/img35/2441/wiwwiwiwwiiiwi.png[/img]



Greetz

ViSiON,SANTi,MAGNET,THC,T0XiC,LKRG,IMAGiNE,WBZ,FLAWL3SS,NOVA
D2U,Vik,Rapeseed,SAFC,goldadvance,MEMORY100,KaN1vE,Unevano,
Pinnz,Wayne,Mr Hive and all P2P groups 
Great Work Guys :D

FYS

CM8@hushmail.com